<?xml version="1.0" encoding="utf-8"?>
<!-- Generator: Adobe Illustrator 26.3.1, SVG Export Plug-In . SVG Version: 6.00 Build 0)  -->
<svg version="1.1" id="Livello_1" xmlns="http://www.w3.org/2000/svg" xmlns:xlink="http://www.w3.org/1999/xlink" x="0px" y="0px"
	 viewBox="0 0 387 387" style="enable-background:new 0 0 387 387;" xml:space="preserve">
<style type="text/css">
	.st0{fill:#CCCCCC;}
	.st1{fill:#FFFFFF;}
	.st2{display:none;}
	.st3{display:inline;}
	.st4{fill:#231F20;}
	.st5{fill:#666666;}
	.st6{fill:none;stroke:#000000;stroke-width:7.3413;}
	.st7{fill:none;stroke:#231F20;stroke-width:7.3413;}
	.st8{fill:#4D4D4D;}
</style>
<ellipse transform="matrix(0.7071 -0.7071 0.7071 0.7071 -80.1505 193.4999)" class="st0" cx="193.5" cy="193.5" rx="193.5" ry="193.5"/>
<g>
	<g>
		<path class="st1" d="M100.9,135.3c-22,28.3-26.2,132.7,8.8,166.7c15.9,15.4,36.9,25.9,69.1,30.3c47.5,6.4,82.3-10,104.9-34.3
			c26-28,24.2-139.5,9.2-162.7C247.7,65,167.2,50.3,100.9,135.3z"/>
		<g>
			<path d="M100.4,120.1c-5.6,7.3-8.6,16.5-11.1,25.2c-3.5,12.8-5.3,26.1-6.4,39.4c-1.5,17.8-1.5,35.9-0.1,53.7
				c1.1,14.2,3.1,28.5,7.1,42.2c3.2,10.9,7.4,21.8,14.3,30.9c3.5,4.6,7.8,8.6,12.3,12.2c5.3,4.3,11.1,8.1,17.2,11.2
				c14.7,7.5,31.1,11.5,47.4,13.5c16.7,2,33.9,1.4,50.2-2.9c13.9-3.7,26.9-10.1,38.4-18.8c5.4-4.1,10.4-8.7,14.9-13.7
				c2.7-2.9,4.8-6.4,6.5-9.9c4.7-9.6,7.4-20.3,9.4-30.7c2.8-14.9,4.2-30.1,5-45.2c0.8-16.3,0.6-32.6-0.3-48.8
				c-0.7-12.5-2-25-4.5-37.2c-1.6-7.9-3.7-15.9-8.2-22.7c-7.9-12-17.5-23.1-28.5-32.4c-9.8-8.2-20.9-15-33-19.3
				c-11.7-4.2-24.2-6-36.6-5.2c-13.2,0.9-26.1,4.6-37.9,10.5c-14.2,7-26.8,16.8-38,27.9C111.9,106.2,105.9,113,100.4,120.1
				c-0.4,0.9-0.6,1.8-0.7,2.8c-0.3,1.5-0.5,2.9-0.5,4.4c-0.3,4-0.4,8.1-0.2,12.1c0.1,3.1,0.1,6.4,1,9.4c0.2,0.5,0.3,1.1,0.5,1.6
				c0.4,0.8,0.7,0.8,1.1,0c5.1-6.5,10.5-12.8,16.3-18.7c-0.2,0.2-0.4,0.4-0.6,0.6c9.5-9.6,20.1-18.3,31.9-25.2
				c10.1-5.8,21-10.3,32.4-12.6c10.4-2.1,21.1-2.5,31.6-0.9c10.4,1.5,20.5,4.9,29.8,9.8c9.9,5.1,19,11.9,27.1,19.6c1,1,2,2,3,3
				c-0.2-0.2-0.4-0.4-0.6-0.6c5,5.1,9.5,10.5,13.7,16.2c3,4,6.1,8.1,8.1,12.7c0.8,1.8,1.4,3.6,2,5.4c-0.2-0.5-0.3-1.1-0.5-1.6
				c0.9,3,1.7,6,2.3,9.1c0.4,1.7,0.7,3.5,1,5.3c0.2,1.2-0.5-2.8-0.3-1.7c0,0.2,0.1,0.5,0.1,0.7c0.1,0.5,0.2,1,0.2,1.4
				c0.1,0.9,0.3,1.9,0.4,2.8c0.3,2,0.5,4,0.8,6c0.1,0.5,0.1,1,0.2,1.5c0,0.2,0,0.5,0.1,0.7c0.2,1.9-0.3-3.3-0.2-2
				c0.1,1,0.2,2.1,0.3,3.1c0.2,2.2,0.4,4.4,0.5,6.6c0,0.5,0.1,1.1,0.1,1.6c0,0.3,0,0.6,0.1,0.9c0.1,2-0.2-3.5-0.1-2.7
				c0.1,1.1,0.1,2.2,0.2,3.4c0.1,2.3,0.2,4.6,0.2,7c0,0.6,0,1.1,0,1.7c0,0.2-0.1-5.4-0.1-3c0,0.3,0,0.6,0,0.9c0,1.2,0,2.4,0,3.6
				c0,1.2,0,2.3,0,3.5c0,0.6,0,1.1,0,1.7c0,0.3,0,0.5,0,0.8c0,2.4,0.1-4.5,0.1-2.9c0,2.4-0.1,4.7-0.2,7.1c0,1.2-0.1,2.4-0.2,3.7
				c0,0.8-0.2,3.3,0-0.1c0.2-3.4,0-0.8,0,0.1c-0.1,2.4-0.3,4.8-0.5,7.1c-0.1,1.2-0.2,2.3-0.3,3.5c0,0.3-0.1,0.5-0.1,0.8
				c-0.2,1.9,0.4-3.5,0.2-2c-0.1,0.6-0.1,1.2-0.2,1.8c-0.3,2.3-0.5,4.6-0.9,6.9c-0.3,2.2-0.6,4.4-1,6.6c0,0.1,0,0.2-0.1,0.4
				c-0.2,1.2,0.4-2.1,0.3-1.7c0,0.2-0.1,0.5-0.1,0.7c-0.1,0.6-0.2,1.1-0.3,1.7c-0.2,1.1-0.4,2.2-0.6,3.3c-0.8,4-1.8,8-2.9,12
				c-0.3,0.9-0.5,1.8-0.8,2.8c0.2-0.5,0.3-1.1,0.5-1.6c-2.2,6.9-4.9,13.8-9.3,19.6c-1.3,1.8-2.8,3.3-4.4,4.9
				c0.2-0.2,0.4-0.4,0.6-0.6c-7.8,7.9-16.7,14.6-26.4,19.9c-10.7,5.7-22.3,9.6-34.2,11.7c-13.9,2.4-28.1,2.3-42,0.4
				c-13.5-1.8-26.8-4.9-39.3-10.4c-10.3-4.5-19.7-10.6-27.9-18.2c-0.9-0.8-1.7-1.6-2.6-2.5c0.2,0.2,0.4,0.4,0.6,0.6
				c-6.5-6.6-11-14.9-14.4-23.4c-1.1-2.7-2.1-5.5-2.9-8.3c0.2,0.5,0.3,1.1,0.5,1.6c-1.1-3.5-2-7-2.8-10.6c-0.4-1.8-0.8-3.7-1.2-5.5
				c-0.2-0.9-0.4-1.9-0.5-2.8c0-0.2-0.1-0.4-0.1-0.6c0,0,0-0.1,0-0.1c-0.2-0.9-0.1-0.3,0.3,1.7c-0.1-0.5-0.2-1-0.3-1.5
				c-0.3-1.9-0.6-3.8-0.8-5.7c-0.1-1-0.2-1.9-0.4-2.9c-0.1-0.4-0.1-0.9-0.1-1.3c0-0.3-0.1-0.5-0.1-0.8c0-0.1,0-0.3,0-0.4
				c-0.1-1,0-0.2,0.3,2.5c-0.2-2-0.4-3.9-0.5-5.9c-0.1-1-0.1-2-0.2-3c0-0.2,0-0.4,0-0.5c-0.1-1.2-0.2-3,0.1,2.7
				c0-0.5-0.1-1.1-0.1-1.6c-0.1-2-0.2-3.9-0.2-5.9c0-0.3,0-0.5,0-0.8c0,1.2,0,2.4,0.1,3.6c0-0.1,0-0.3,0-0.4c0-0.5,0-1,0-1.5
				c0-1,0-2,0-3c0-1,0-2,0-2.9c0-2.5-0.1,5.1,0,2.6c0-0.5,0-1.1,0-1.6c0.1-1.9,0.1-3.9,0.2-5.8c0-0.3,0-0.5,0-0.8
				c-0.1,1.1-0.1,2.2-0.2,3.2c0-0.1,0-0.2,0-0.3c0-0.5,0.1-1,0.1-1.6c0.1-1,0.1-1.9,0.2-2.9c0.1-0.9,0.2-1.9,0.2-2.8
				c0-0.4,0.1-0.9,0.1-1.3c0-0.3,0-0.5,0.1-0.8c0-0.1,0-0.2,0-0.3c0.1-1.1,0-0.3-0.2,2.4c0.4-3.6,0.8-7.3,1.4-10.9
				c0.1-0.5,0.2-1,0.2-1.4c0-0.2,0.1-0.5,0.1-0.7c0.2-1.3-0.5,2.8-0.3,1.5c0.2-1,0.4-2,0.6-3c0.3-1.8,0.7-3.6,1.1-5.4
				c0.8-3.5,1.7-7,2.8-10.5c-0.2,0.5-0.3,1.1-0.5,1.6c2.2-6.9,4.9-13.9,9.4-19.6c0.4-0.9,0.6-1.8,0.7-2.8c0.3-1.5,0.5-2.9,0.5-4.4
				c0.3-4,0.4-8.1,0.2-12.1c-0.1-3.1-0.1-6.4-1-9.4c-0.2-0.5-0.3-1.1-0.5-1.6C101.1,119.3,100.8,119.3,100.4,120.1z"/>
		</g>
	</g>
	<g class="st2">
		<g class="st3">
			<path class="st0" d="M461.2,174.5c-2.3,1.6-4.9,2.9-7.5,4c-5.4,2.4-11.3,4-17.2,4.1c-3.9,0.1-7.7-0.6-11.4-2.1
				c-0.1,0-0.1,1.6-0.1,1.8c0,0.2-0.1,1.6,0.1,1.8c11,4.5,23.5,1.1,33.5-4.4c0.9-0.5,1.8-1,2.6-1.6c0.3-0.2,0.1-1.5,0.1-1.8
				C461.4,176.1,461.2,174.5,461.2,174.5L461.2,174.5z"/>
		</g>
	</g>
	<g class="st2">
		<g class="st3">
			<path class="st0" d="M513.2,178c2.3,1.6,4.9,2.9,7.5,4c5.4,2.4,11.3,4,17.2,4.1c3.9,0.1,7.7-0.6,11.4-2.1
				c0.3-0.1,0.2-1.5,0.2-1.8c0-0.1-0.1-1.8-0.2-1.8c-11,4.5-23.5,1.1-33.5-4.4c-0.9-0.5-1.8-1-2.6-1.6c0,0-0.2,1.6-0.2,1.8
				C513.1,176.5,512.9,177.8,513.2,178L513.2,178z"/>
		</g>
	</g>
	<path class="st0" d="M86.1,218.8c-0.1-1.4,1.7-2,2.6-0.9c10.5,14.7,51.5,65.8,112.3,64.1c58.4-1.6,89.8-50.8,99.6-67.8
		c0.8-1.3,1.4-1.1,1.2,0.4c-1.9,21.8-7.2,91.2-34.8,100.4c-33,11-125,27-153-5C90.6,283.3,86.8,234.3,86.1,218.8z"/>
	<path class="st0" d="M284.7,207.1c0,0-13.8-14.7-42.8-14.4c-29,0.4-38,7.1-38,7.1s-6.1-26.9,7.4-30.7c13.5-3.9,51.1-9.2,62.4,2.7
		C285,183.7,284.7,207.1,284.7,207.1z"/>
	<path class="st0" d="M103.2,206.9c0,0,13.7-14.7,42.7-14.3c29,0.4,38,7.2,38,7.2s6-26.9-7.5-30.8c-13.5-3.9-51.2-9.4-62.4,2.5
		C102.8,183.5,103.2,206.9,103.2,206.9z"/>
	<g>
		<g>
			<g>
				<path d="M100.7,128.5c-5.4,7-8.4,15.9-10.8,24.3c-3.3,11.8-5,24-6,36.2c-1.2,14.9-1.3,30-0.1,44.9c1,13.2,2.9,26.4,6.6,39
					c3.1,10.6,7.3,21.1,14,30c3.4,4.5,7.6,8.4,12,11.9c5.3,4.3,11.1,8.1,17.2,11.2c14.7,7.5,31.1,11.5,47.4,13.5
					c16.7,2,33.9,1.4,50.2-2.9c13.9-3.7,26.9-10.1,38.4-18.8c5.2-4,10.2-8.5,14.6-13.4c2.7-2.9,4.8-6.4,6.5-9.9
					c4.6-9.3,7.2-19.7,9.1-29.9c2.5-13.2,3.8-26.6,4.5-40c0.7-14,0.6-28.1-0.2-42.1c-0.7-11.4-1.8-22.9-4.1-34.1
					c-1.6-7.7-3.6-15.3-8-21.9c-7.9-11.9-17.3-22.9-28.2-32.1c-9.8-8.2-20.9-15-33-19.3c-11.7-4.2-24.2-6-36.6-5.2
					c-13.2,0.9-26.1,4.6-37.9,10.5c-14.2,7-26.8,16.8-38,27.9C112,114.8,106.2,121.5,100.7,128.5c-0.5,0.6-0.5,2.6-0.6,3.2
					c-0.1,1.8-0.2,3.6-0.1,5.4c0.1,1.4,0.1,2.8,0.4,4.2c0.1,0.4,0.3,1.3,0.7,0.7c5.1-6.5,10.5-12.8,16.3-18.7
					c-0.1,0.1-0.2,0.2-0.2,0.3c9.5-9.6,20.1-18.3,31.9-25.2c10.1-5.8,21-10.3,32.4-12.6c10.4-2.1,21.1-2.5,31.6-0.9
					c10.4,1.5,20.5,4.9,29.8,9.8c9.9,5.1,19,11.9,27.1,19.6c1,1,2,2,3,3c-0.1-0.1-0.2-0.2-0.2-0.3c6.1,6.2,11.6,13,16.6,20.1
					c1.6,2.3,3.3,4.7,4.6,7.3c0.9,1.8,1.6,3.7,2.2,5.5c0.1,0.2,0.2,0.5,0.2,0.7c0,0.1,0.1,0.3,0.1,0.4c0,0-0.2-0.7-0.1-0.3
					c0.2,0.6,0.4,1.2,0.5,1.9c0.3,1.1,0.6,2.3,0.9,3.5c0.7,2.7,1.2,5.4,1.7,8.1c0.1,0.3,0.2,1.6,0,0.1c0.1,0.4,0.1,0.7,0.2,1.1
					c0.1,0.8,0.3,1.6,0.4,2.4c0.2,1.6,0.5,3.1,0.7,4.7c0.2,1.6,0.4,3.2,0.6,4.8c0,0.2,0,0.4,0.1,0.6c0.1,1-0.1-1.5-0.1-0.5
					c0,0.4,0.1,0.8,0.1,1.2c0.1,0.9,0.2,1.7,0.2,2.6c0.2,1.8,0.3,3.5,0.4,5.3c0.1,0.9,0.1,1.7,0.2,2.6c0,0.6,0.1,2.4,0-0.1
					c0,0.5,0.1,1,0.1,1.5c0.1,1.8,0.2,3.7,0.2,5.5c0,0.8,0.1,1.7,0.1,2.5c0,0.4,0,0.9,0,1.3c0,0.3,0,0.5,0,0.8c0,1.5,0-1.4,0-0.7
					c0.1,3.8,0.1,7.5,0,11.3c0,1.2,0-2,0-0.8c0,0.2,0,0.3,0,0.5c0,0.5,0,1,0,1.4c0,1-0.1,2-0.1,3c-0.1,1.9-0.1,3.8-0.2,5.8
					c0,0.4,0,0.9-0.1,1.3c-0.1,1.1,0.1-1.5,0-0.8c0,0.2,0,0.4,0,0.7c-0.1,1-0.1,2-0.2,3c-0.1,1.9-0.3,3.7-0.4,5.6
					c-0.1,0.9-0.2,1.9-0.3,2.8c0,0.4-0.1,0.9-0.1,1.3c0.2-2,0-0.1,0,0.4c-0.2,1.8-0.4,3.7-0.7,5.5c-0.2,1.8-0.5,3.6-0.8,5.4
					c-0.1,0.8-0.3,1.6-0.4,2.4c-0.1,0.4-0.1,0.8-0.2,1.2c-0.1,0.9,0.2-1,0-0.1c0,0.3-0.1,0.6-0.1,0.8c-0.6,3.3-1.3,6.7-2.1,10
					c-0.4,1.6-0.8,3.2-1.2,4.8c-0.2,0.7-0.4,1.4-0.6,2.1c-0.1,0.4-0.2,0.8-0.4,1.2c0,0.1-0.1,0.3-0.1,0.4c0,0.1-0.3,1.1-0.1,0.3
					c-0.9,2.7-1.8,5.4-2.9,8.1c-1.9,4.6-4.3,9.1-7.5,12.9c-1,1.2-2.1,2.3-3.1,3.4c0.1-0.1,0.2-0.2,0.2-0.3
					c-7.8,7.9-16.7,14.6-26.4,19.9c-10.7,5.7-22.3,9.6-34.2,11.7c-13.9,2.4-28.1,2.3-42,0.4c-13.5-1.8-26.8-4.9-39.3-10.4
					c-10.3-4.5-19.7-10.6-27.9-18.2c-0.9-0.8-1.7-1.6-2.6-2.5c0.1,0.1,0.2,0.2,0.2,0.3c-7.3-7.4-12.2-17-15.7-26.7
					c-0.5-1.4-1-2.7-1.4-4.1c-0.1-0.2-0.3-1-0.1-0.5c-0.1-0.3-0.2-0.7-0.3-1c-0.2-0.7-0.4-1.5-0.7-2.2c-0.8-2.9-1.5-5.8-2.2-8.8
					c-0.3-1.5-0.6-3-0.9-4.5c-0.1-0.8-0.3-1.5-0.4-2.3c0-0.2-0.1-0.3-0.1-0.5c-0.1-0.7,0,0.2,0.1,0.3c-0.1-0.4-0.1-0.9-0.2-1.3
					c-0.5-3.2-1-6.4-1.3-9.6c0-0.4-0.1-0.8-0.1-1.2c0-0.4-0.2-1.7,0,0.1c-0.1-0.8-0.2-1.7-0.2-2.5c-0.1-1.6-0.3-3.2-0.4-4.8
					c-0.1-0.8-0.1-1.5-0.1-2.3c-0.1-1.1,0.1,1.5,0,0.7c0-0.2,0-0.4,0-0.5c0-0.4,0-0.9-0.1-1.3c-0.1-1.7-0.1-3.3-0.2-5
					c0-0.4,0-0.7,0-1.1c0-1,0,1.1,0,1.1c0-0.2,0-0.4,0-0.7c0-0.9,0-1.7,0-2.6c0-1.6,0-3.2,0-4.8c0-0.5,0-1.3,0,1.1
					c0-0.2,0-0.4,0-0.5c0-0.4,0-0.8,0-1.2c0-0.8,0-1.7,0.1-2.5c0-0.7,0.1-1.5,0.1-2.2c0-0.4,0-0.8,0.1-1.2c0-0.6,0.1-2.3,0,0.1
					c0.2-3.1,0.4-6.2,0.7-9.3c0-0.2,0-0.3,0.1-0.5c0.1-1-0.1,1.2-0.1,0.5c0-0.4,0.1-0.8,0.1-1.1c0.1-0.8,0.2-1.5,0.3-2.3
					c0.2-1.5,0.4-3,0.6-4.5c0.2-1.5,0.4-2.9,0.7-4.3c0-0.3,0.3-1.8,0.1-0.3c0.1-0.3,0.1-0.6,0.2-0.9c0.1-0.7,0.3-1.5,0.4-2.2
					c0.5-2.7,1.1-5.4,1.7-8.1c0.6-2.5,1.3-5,2.1-7.5c0-0.1,0.2-0.5,0,0.1c0-0.1,0.1-0.3,0.1-0.4c0.1-0.3,0.2-0.6,0.3-0.9
					c0.2-0.6,0.4-1.2,0.6-1.8c0.4-1.1,0.8-2.2,1.2-3.3c1.5-3.8,3.3-7.5,5.5-10.9c0.5-0.7,1-1.5,1.5-2.1c0.5-0.6,0.5-2.6,0.6-3.2
					c0.1-1.8,0.2-3.6,0.1-5.4c-0.1-1.4-0.1-2.8-0.4-4.2C101.3,128.9,101.2,127.9,100.7,128.5z"/>
			</g>
		</g>
		<g>
			<path class="st1" d="M307,209c0,0,8.5-9,12.8-9c4.3,0-1.2,69-17,59"/>
			<g>
				<path class="st4" d="M306.7,220.6c2.2-2.4,4.7-4.6,7.4-6.5c-0.2,0.1-0.4,0.3-0.5,0.4c1.3-0.9,2.7-1.8,4.2-2.3
					c0.4-0.1,1.2-0.4,1.7-0.1c-0.2-0.2-0.3-0.3-0.5-0.5c0.2,0.2,0.3,0.5,0.4,0.8c0.3,0.5-0.3-1.2-0.3-0.9c0,0.1,0.1,0.2,0.1,0.3
					c0,0.2,0.1,0.5,0.1,0.7c0.2,1.3-0.3-2.3-0.1-1c0,0.3,0.1,0.7,0.1,1c0,0.2,0,0.3,0,0.5c0.1,1.3-0.1-3-0.1-1.7c0,0.4,0,0.8,0,1.2
					c0,0.4,0,0.8,0,1.2c0,1.6,0-2.1,0-2.1c0,0.3,0,0.6,0,0.8c0,1,0,2-0.1,3c0,0.6-0.1,2,0-0.7c0.1-2.7,0.1-1.3,0-0.7
					c0,0.6-0.1,1.1-0.1,1.7c-0.1,1.2-0.2,2.4-0.3,3.6c-0.1,1.5,0.4-4,0.2-2.1c0,0.3-0.1,0.6-0.1,0.9c-0.1,0.6-0.1,1.2-0.2,1.9
					c-0.1,1.2-0.3,2.5-0.5,3.7c-0.2,1.8,0.5-3.3,0.2-1.6c0,0.3-0.1,0.6-0.1,0.9c-0.1,0.6-0.2,1.3-0.3,1.9c-0.2,1.3-0.4,2.6-0.7,3.8
					c-0.1,0.3-0.1,0.6-0.2,0.9c-0.1,0.3,0.6-2.9,0.3-1.7c0,0.1-0.1,0.3-0.1,0.4c-0.1,0.6-0.3,1.2-0.4,1.9c-0.3,1.2-0.5,2.4-0.8,3.5
					c-0.1,0.6-0.3,1.1-0.4,1.7c-0.2,0.8,0.6-2.2,0.2-0.8c-0.1,0.3-0.2,0.7-0.3,1c-0.3,1-0.7,2.1-1,3.1c-0.4,1.1-0.8,2.2-1.3,3.2
					c0-0.1,0.6-1.3,0.1-0.3c-0.1,0.2-0.2,0.5-0.4,0.7c-0.2,0.4-0.4,0.8-0.7,1.2c-0.9,1.4-1.9,2.8-3.2,3.8c0.2-0.1,0.4-0.3,0.5-0.4
					c-1.9,1.4-4.1,1.3-6.1,0.1c-0.7-0.4-1.7,3.8-1.6,3.4c-0.7,2.7-1,5.7-1.2,8.4c-0.2,2.8-0.3,5.7,0,8.5c0.1,1.1,0.1,3,1.1,3.6
					c4.2,2.6,7.9-0.8,10-4.4c3.8-6.4,5.6-14.1,7.1-21.3c2-9.9,3.3-19.9,3.9-29.9c0.3-4.8,0.5-9.7,0.4-14.6c-0.1-3.2-0.1-6.7-0.9-9.8
					c-0.2-0.8-0.5-2.4-1.4-2.8c-0.9-0.5-2.2,0.2-3,0.6c-3.8,1.9-7.1,5-10.1,8c-0.2,0.2-0.4,0.4-0.7,0.7c-0.4,0.7-0.7,1.4-0.8,2.1
					c-0.3,1.1-0.6,2.2-0.7,3.3c-0.5,3-0.8,6.2-0.8,9.2c0,2.3-0.2,4.9,0.4,7.2C305.5,220,305.7,221.6,306.7,220.6L306.7,220.6z"/>
			</g>
		</g>
		<g>
			<path class="st1" d="M82.9,210c0,0-11.5-8-15.8-8c-4.3,0,2.3,56.4,19,59"/>
			<g>
				<path class="st4" d="M83.7,198c-2.2-1.5-4.4-2.9-6.7-4.2c-1.8-1-3.5-2-5.4-2.8c-1-0.4-2.7-1.3-3.9-1c-1.1,0.3-1.6,1.3-2,2.2
					c-1.2,2.7-1.6,5.7-2,8.6c-0.7,5-0.8,10-0.6,15c0.3,7.7,1.5,15.4,3,23c1.5,7.3,3.6,14.6,6.8,21.4c2.3,5,6.1,11.7,12.2,12.7
					c1.1,0.2,1.9-3.1,2-3.4c0.8-2.7,1.2-5.7,1.3-8.4c0.2-2.8,0.3-5.7-0.1-8.5c-0.2-0.9-0.3-3.4-1.5-3.6c-1.5-0.3-2.9-0.9-4.2-1.9
					c0.2,0.2,0.4,0.3,0.6,0.5c-4.1-3.1-6.6-8.2-8.5-12.9c0.2,0.4,0.3,0.8,0.5,1.2c-1.3-3.2-2.4-6.5-3.3-9.8
					c-0.5-1.7-0.9-3.5-1.3-5.3c-0.2-0.8-0.4-1.6-0.5-2.4c-0.1-0.4-0.2-0.8-0.2-1.2c-0.2-1,0.3,1.3,0.2,1.2c-0.1-0.2-0.1-0.7-0.2-1
					c-0.6-3.2-1.1-6.4-1.4-9.6c-0.1-1-0.3-4,0,0.2c-0.1-0.7-0.1-1.4-0.2-2.1c0-0.6-0.1-1.2-0.1-1.8c0-0.3,0-0.6,0-0.8
					c0-1.3,0,3.5,0,2.2c0-0.2,0-0.3,0-0.5c0-0.3,0-0.6,0-0.9c0-0.1,0-0.3,0-0.4c0-1.1,0.2-2.4-0.1,2.6c0-0.3,0-0.5,0-0.8
					c0.1-1.5-0.4,4.1-0.2,2.4c0.2-1.5-0.6,3.5-0.3,2.1c0.3-1.3-0.8,2.9-0.4,1.8c0.3-1.1-0.8,2-0.5,1.4c0-0.1,0.1-0.2,0.2-0.3
					c-0.2,0.4-0.5,0.8-0.7,1.2c0.1-0.1,0.2-0.3,0.3-0.4c-0.2,0.1-0.5,0.3-0.7,0.4c0.8-0.4,2.6,0.4,3.3,0.7c1.9,0.7,3.8,1.7,5.6,2.8
					c2.4,1.4,4.8,2.9,7.1,4.5c0.8,0.6,2.1-3.7,2-3.4c0.8-2.7,1.2-5.7,1.3-8.4c0.2-2.8,0.3-5.7-0.1-8.5C85,200.3,84.9,198.9,83.7,198
					L83.7,198z"/>
			</g>
		</g>
		<g>
			<g>
				<path class="st5" d="M140.4,257.1c7.4,5,15.9,8.7,24.2,11.8c17.7,6.4,37.1,9,55.7,5.1c13-2.8,25-8.7,35.4-16.9
					c0.5-0.4,0.4-1.8,0.4-2.4c0-0.2,0-1.7-0.4-1.4c-9.4,7.4-20.2,13-31.9,16c-9.8,2.5-20.1,3.1-30.2,2.2
					c-15.6-1.4-30.9-6.4-44.8-13.6c-2.8-1.4-5.6-3-8.2-4.7c-0.3-0.2-0.5,1.8-0.5,1.9C140.1,255.6,140,256.8,140.4,257.1L140.4,257.1
					z"/>
			</g>
		</g>
		<path class="st4" d="M135.2,289.4c0,0-8.7-36.2,14.4-44.1c23.1-7.9,90.2-2,102.5,9.2s12.8,32.2,12.8,32.2s-5.2-3.3-22.9-11.8
			c-22.6-10.9-72.2-7.1-91-0.7C132.2,280.8,135.2,289.4,135.2,289.4z"/>
		<path class="st4" d="M216.5,280.8c-18.7,36.6-33,0-33,0H216.5z"/>
		<g>
			<g>
				<g>
					<path class="st4" d="M109.9,171.9c-3.1,3-5.1,6.9-6.4,11c-1.7,5.3-2.6,10.8-2.9,16.4c-0.4,9.8,0.4,20.6,4.9,29.5
						c0.8,1.7,1.8,3.3,3,4.7c1.3,1.5,2.9,2.7,4.5,3.8c4.2,2.9,8.9,5,13.8,6.3c10,2.7,20.9,2.2,30.6-1.4c4.8-1.8,9.4-4.3,13.4-7.6
						c3-2.5,5.3-5.6,7.2-9.1c4.8-9,7.3-19.4,8.2-29.5c0.5-5.3,0.4-10.8-0.6-16c-0.7-3.7-2-7.7-4.7-10.5c-2-2.1-4.9-3.4-7.6-4.3
						c-3.5-1.2-7.2-1.9-10.9-2.3c-8.8-1.1-17.8-0.9-26.6,0.1c-7.6,0.9-15.8,2.5-22.5,6.4C112.1,170.1,111,170.9,109.9,171.9
						c-0.7,0.6-1,1.9-1.2,2.7c-0.3,1.5-0.5,3.1-0.5,4.6c0,0.5,0.4,5.6,1.7,4.3c4.7-4.5,11.8-6.2,18.1-7.5c8.3-1.6,16.8-2.2,25.3-1.9
						c7.1,0.3,14.7,1,21.4,3.8c2.4,1,4.4,2.4,6,4.8c0.1,0.1,0.6,1.1,0.3,0.5c0.2,0.3,0.3,0.7,0.5,1c0.4,0.8,0.6,1.7,0.9,2.6
						c0.2,0.5-0.2-0.9,0-0.1c0.1,0.2,0.1,0.5,0.2,0.7c0.1,0.4,0.2,0.8,0.2,1.3c0,0.2,0.1,0.3,0.1,0.5c0.2,1-0.1-1.2,0-0.2
						c0.1,0.5,0.1,1.1,0.2,1.6c0,0.5,0,2.1,0,0.2c0,0.5,0,0.9,0,1.4c0,0.5,0,1,0,1.4c0-2.2,0-0.1,0,0.5c0,0.5-0.1,1-0.1,1.5
						c0,0.4-0.2,1.6,0-0.4c0,0.2,0,0.4-0.1,0.6c-0.1,1.2-0.3,2.3-0.5,3.5c-0.1,0.4-0.3,1.2,0.1-0.4c-0.1,0.3-0.1,0.6-0.2,0.9
						c-0.1,0.5-0.2,1-0.3,1.5c-0.1,0.5-0.2,1-0.4,1.5c-0.1,0.4-0.6,1.4-0.5,1.8c-0.1-0.4,0.3-0.9,0.1-0.3c-0.1,0.3-0.2,0.6-0.3,0.9
						c-0.1,0.5-0.3,1-0.5,1.4c-0.3,1-0.7,2.1-1.1,3.1c-0.2,0.5-0.4,0.9-0.5,1.3c-0.1,0.2-0.5,1.1-0.1,0.1c-0.1,0.2-0.2,0.4-0.3,0.6
						c-0.4,0.9-0.8,1.8-1.3,2.7c-0.8,1.6-1.7,3.1-2.8,4.5c0.4-0.5-0.3,0.4-0.4,0.5c-0.2,0.3-0.5,0.5-0.7,0.8c-0.7,0.7-1.4,1.4-2.1,2
						c-1.8,1.6-3.8,3-5.9,4.3c-8.4,5-18.4,7-28.1,6.4c-9.1-0.6-18.9-3.6-25.7-9.8c-1.2-1.1-2.1-2.3-2.9-3.7
						c-0.1-0.2-0.6-1.1-0.4-0.6c-0.2-0.4-0.4-0.7-0.6-1.1c-0.4-0.8-0.8-1.7-1.1-2.6c-0.3-0.8-0.6-1.7-0.9-2.6
						c-0.1-0.3-0.4-1.6-0.2-0.7c-0.1-0.6-0.3-1.1-0.4-1.7c-0.2-1-0.4-2-0.6-3c0-0.2-0.1-0.5-0.1-0.7c-0.1-0.4,0-1.2,0,0
						c0-0.6-0.2-1.2-0.2-1.8c-0.1-1-0.1-2-0.2-3c0.2,1.9,0,0,0-0.4c0-0.6,0-1.2,0-1.8c0-0.3,0-0.5,0-0.8c0-0.8-0.1,1.7,0,0.5
						c0-0.5,0.1-1,0.1-1.5c0-0.5,0.1-1,0.1-1.5c-0.2,2.2,0,0,0.1-0.5c0-0.3,0.1-0.6,0.1-0.9c0-0.2,0.2-1.2,0-0.2c-0.2,1,0,0,0-0.2
						c0.1-0.3,0.1-0.6,0.2-0.9c0.1-0.5,0.2-0.9,0.3-1.4c0.1-0.3,0.3-0.8-0.1,0.4c0.1-0.3,0.2-0.7,0.3-1.1c0.3-0.9,0.6-1.7,1-2.6
						c-0.4,1,0.2-0.3,0.3-0.5c0.2-0.5,0.5-0.9,0.7-1.4c0.2-0.4,0.4-0.7,0.7-1.1c0.1-0.2,0.3-0.4,0.4-0.6c0.1-0.1,0.3-0.4,0,0
						c0.5-0.7,1.1-1.4,1.8-2c0.7-0.6,1-1.8,1.2-2.7c0.3-1.5,0.5-3.1,0.5-4.6C111.6,175.7,111.3,170.6,109.9,171.9z"/>
				</g>
			</g>
			<g>
				<g>
					<path class="st4" d="M277.4,184.1c5.6,5.7,7.2,14.5,7.4,22.1c0,0.4,0,0.8,0,1.2c0,0.2-0.1,1.7,0,0.9c0.1-1.6,0.2-3.2,0.3-4.8
						c0.1-1.2,0-0.5,0-0.3c0-0.8,0,0.1,0,0.3c0,0.2-0.1,0.4-0.1,0.6c-0.3,2.2-0.7,4.3-1.3,6.4c-0.9,3.5-2.3,7-4.3,10
						c-2.2,3.2-5.4,5.3-8.7,7.1c-4.2,2.3-8.8,3.9-13.5,4.8c-9.6,1.8-19.8,0.8-28.9-3c-4.4-1.8-8.5-4.4-12-7.5
						c-2.6-2.4-4.6-5.2-6.2-8.4c-3.8-7.5-6-16.1-6.6-24.5c-0.1-1-0.1-2-0.1-2.9c0-0.4,0-0.8,0-1.1c0-0.2,0.1-1.1,0-0.2
						c-0.1,1.9-0.3,3.7-0.4,5.6c0,0.4-0.1,0.7-0.1,1.1c0.2-0.2,0.3-1.7,0.4-2.3c0.2-0.9,0.4-1.9,0.8-2.8c1-2.8,2.6-5.5,5.1-7.2
						c2.4-1.6,5.2-2.5,7.9-3.2c3.6-0.9,7.3-1.4,11-1.7c8.4-0.7,17-0.3,25.3,0.9c7.1,1.1,14.8,2.6,21,6.5
						C275.4,182.4,276.5,183.2,277.4,184.1c0,0,0.3-2,0.2-1.7c0.1-1.4,0.2-2.8,0.3-4.2c0.1-1.4,0.2-2.8,0.3-4.2c0-0.3,0.2-1.6,0-1.8
						c-2.2-2.2-5.1-3.6-8-4.8c-3.7-1.5-7.6-2.5-11.5-3.3c-8.8-1.7-17.8-2.3-26.8-1.9c-4,0.2-8.1,0.6-12.1,1.4
						c-3.1,0.6-6.2,1.5-9,3.1c-2.7,1.5-4.6,3.9-5.7,6.8c-0.7,1.7-1.2,3.6-1.5,5.5c-0.7,4.2-0.9,8.6-1.1,12.8
						c-0.5,9.7,0.9,19.4,4.3,28.5c1.4,3.6,3.1,7.2,5.4,10.3c2.7,3.5,6.5,6.3,10.3,8.5c8.9,5.1,19.5,7,29.7,6c5-0.5,10-1.8,14.6-3.9
						c3.8-1.7,8-4,10.7-7.3c5.9-7.1,6.9-17.5,7.6-26.3c0.8-10.3,1.6-21.7-3.6-31.1c-0.9-1.6-2-3.1-3.3-4.4c0,0-0.3,2-0.2,1.7
						c-0.1,1.4-0.2,2.8-0.3,4.2c-0.1,1.4-0.2,2.8-0.3,4.2C277.4,182.7,277.2,183.9,277.4,184.1z"/>
				</g>
			</g>
			<path class="st6" d="M104.5,196.9c-11.2,1.7-19.9,3.6-26.4,5.3"/>
			<path class="st7" d="M203.3,191c-2.8,0-5.6,0-8.5,0c-2.9,0-5.7,0-8.5,0"/>
			<path class="st7" d="M309.6,200.6c-6.5-1.4-14.7-2.9-24.7-4.3"/>
		</g>
		<path d="M191.5,150.4l-11.7,28.1l-87.7,4c0,0,11.7-26.7,25.3-26.7c13.6,0,27.3-6.7,42.9-9.4C175.9,143.7,191.5,150.4,191.5,150.4z
			"/>
		<path d="M202.3,154.4l6.8,21.9l83.6,1.2c0,0-15.3-25.5-26.9-25.5c-11.6,0-11.6-4.6-24.8-7.6C227.9,141.2,202.3,154.4,202.3,154.4z
			"/>
		<g>
			<path d="M142.9,84c20.7-10.2,38.3-49.9,38.3-49.9s5.2,53,5.2,25.9c0-27.1,17.6-46,17.6-46c-1,12,9.3,47.1,9.3,47.1
				s-3.5-49.2,2.1-27.1s36.7,52.2,47.2,55C262.6,89,122.2,94.2,142.9,84z"/>
			<path class="st8" d="M219.3,189.1c0,0,30.6-5.8,32.7,3.5C254.1,201.8,220.3,192.6,219.3,189.1z"/>
			<path class="st8" d="M168.6,189.1c0,0-30.6-5.8-32.7,3.5C133.8,201.8,167.6,192.6,168.6,189.1z"/>
		</g>
		<path d="M273.7,95c0,0-37-30-42-42s5,26,5,26L273.7,95z"/>
		<path d="M128.7,91c0,0,33-27,37-40c0,0-6,20-14,32S128.7,91,128.7,91z"/>
	</g>
</g>
</svg>
